<?xml version="1.0" encoding="UTF-8"?>
<svg id="Layer_2" data-name="Layer 2" xmlns="http://www.w3.org/2000/svg" viewBox="0 0 1443.71 1259.91">
  <defs>
    <style>
      .cls-1, .cls-2, .cls-3, .cls-4, .cls-5, .cls-6, .cls-7 {
        stroke-width: 0px;
      }

      .cls-2 {
        fill: #f7022d;
      }

      .cls-3 {
        fill: #f87316;
      }

      .cls-4 {
        fill: #2fad4c;
      }

      .cls-5 {
        fill: #2c5efb;
      }

      .cls-6 {
        fill: #7416a8;
      }

      .cls-7 {
        fill: #fce22b;
      }
    </style>
  </defs>
  <g id="Capa_1" data-name="Capa 1">
    <path class="cls-1" d="m690.44,18.14L4.91,1205.5c-13.96,24.18,3.49,54.41,31.42,54.41h1371.05c27.92,0,45.38-30.23,31.42-54.41L753.27,18.14c-13.96-24.18-48.87-24.18-62.83,0Z"/>
    <g>
      <path class="cls-6" d="m1162.95,1094.15H280.75c-8.15,0-13.22-8.84-9.11-15.88l28.74-49.22c1.89-3.24,5.36-5.23,9.11-5.23h824.72c3.75,0,7.22,1.99,9.11,5.23l28.74,49.22c4.11,7.04-.97,15.88-9.11,15.88Zm-1.21-107.72H281.97s-60.52,103.64-60.52,103.64c-10.77,18.44,2.71,41.47,24.27,41.47h952.28c21.56,0,35.04-23.04,24.27-41.47l-60.52-103.64h0Z"/>
      <path class="cls-5" d="m1082.81,949.69H360.9c-6.11,0-9.92-6.63-6.84-11.91l31.82-54.5c1.42-2.43,4.02-3.92,6.84-3.92h658.27c2.81,0,5.42,1.49,6.84,3.92l31.82,54.5c3.08,5.28-.72,11.91-6.84,11.91Zm-5.81-107.72H366.71s-84.74,145.12-84.74,145.12h879.77s-84.74-145.12-84.74-145.12h0Z"/>
      <path class="cls-4" d="m1002.67,804.58H441.04c-4.07,0-6.61-4.42-4.56-7.94l34.9-59.77c.95-1.62,2.68-2.62,4.56-2.62h491.82c1.88,0,3.61,1,4.56,2.62l34.9,59.77c2.05,3.52-.48,7.94-4.56,7.94Zm-10.41-107.72H451.45s-84.74,145.12-84.74,145.12h710.3s-84.74-145.12-84.74-145.12h0Z"/>
      <path class="cls-7" d="m920.22,659.46h-396.74c-3.06,0-4.96-3.32-3.42-5.95l36.44-62.41c.71-1.22,2.01-1.96,3.42-1.96h323.85c1.41,0,2.71.75,3.42,1.96l36.44,62.41c1.54,2.64-.36,5.95-3.42,5.95Zm-12.7-107.72h-371.33s-84.74,145.12-84.74,145.12h540.81s-84.74-145.12-84.74-145.12h0Z"/>
      <path class="cls-3" d="m838.36,514.34h-233c-1.78,0-2.89-1.93-1.99-3.47l38.37-65.71c.41-.71,1.17-1.14,1.99-1.14h156.26c.82,0,1.58.44,1.99,1.14l38.37,65.71c.9,1.54-.21,3.47-1.99,3.47Zm-15.58-107.72h-201.85s-84.74,145.12-84.74,145.12h371.33s-84.74-145.12-84.74-145.12h0Z"/>
      <path class="cls-2" d="m753.55,369.22h-63.4c-1.78,0-2.89-1.93-1.99-3.47l31.7-54.29c.89-1.53,3.1-1.53,3.99,0l31.7,54.29c.9,1.54-.21,3.47-1.99,3.47Zm-31.7-107.63c-9.43,0-18.87,4.61-24.25,13.84l-76.61,131.19h201.73s-76.61-131.19-76.61-131.19c-5.39-9.22-14.82-13.84-24.25-13.84h0Z"/>
    </g>
  </g>
</svg>