<?xml version="1.0" encoding="UTF-8"?>
<svg id="Layer_2" data-name="Layer 2" xmlns="http://www.w3.org/2000/svg" viewBox="0 0 1586.8 1404.61">
  <defs>
    <style>
      .cls-1, .cls-2, .cls-3, .cls-4, .cls-5, .cls-6, .cls-7, .cls-8, .cls-9 {
        stroke-width: 0px;
      }

      .cls-2 {
        fill: #f7022d;
      }

      .cls-3 {
        fill: #f87316;
      }

      .cls-4 {
        fill: #2fad4c;
      }

      .cls-5 {
        fill: #2c5efb;
      }

      .cls-6 {
        fill: #7416a8;
      }

      .cls-7 {
        fill: #fce22b;
      }

      .cls-8 {
        fill: #f45a95;
      }

      .cls-9 {
        fill: #fff;
      }
    </style>
  </defs>
  <g id="Capa_1" data-name="Capa 1">
    <path class="cls-1" d="m1540.08,1404.61H46.72c-35.73,0-58.2-38.52-40.61-69.61L747.51,23.69c17.8-31.48,63.1-31.61,81.09-.25l751.95,1311.31c17.83,31.1-4.63,69.85-40.47,69.85Z"/>
    <path class="cls-2" d="m820.68,465.47h-59.13c-15.12,0-29.11-8.03-36.73-21.09-7.62-13.06-7.73-29.19-.29-42.35l29.35-51.92c7.52-13.3,21.6-21.55,36.88-21.59h.13c15.23,0,29.3,8.15,36.88,21.37l29.77,51.92c7.54,13.16,7.51,29.34-.09,42.47-7.6,13.12-21.62,21.21-36.79,21.21Z"/>
    <path class="cls-3" d="m850.15,516.39h-117.64c-15.12,0-29.11-8.03-36.73-21.09-7.62-13.06-7.73-29.19-.29-42.35l29.35-51.92c7.54-13.34,21.69-21.59,37.01-21.59h58.51c15.24,0,29.31,8.15,36.89,21.37l29.77,51.92c7.54,13.16,7.51,29.34-.09,42.46-7.6,13.13-21.62,21.21-36.79,21.21Z"/>
    <path class="cls-7" d="m880.23,568.31h-177.38c-15.12,0-29.11-8.03-36.73-21.09-7.62-13.06-7.73-29.19-.29-42.35l29.35-51.92c7.54-13.34,21.69-21.59,37.01-21.59h118.25c15.24,0,29.31,8.15,36.89,21.37l29.77,51.92c7.54,13.16,7.51,29.34-.09,42.47-7.6,13.12-21.62,21.21-36.79,21.21Z"/>
    <path class="cls-4" d="m910,620.23h-236.5c-15.12,0-29.11-8.03-36.73-21.09-7.62-13.06-7.73-29.19-.29-42.35l29.35-51.92c7.54-13.34,21.68-21.59,37.01-21.59h177.38c15.24,0,29.31,8.15,36.89,21.37l29.77,51.92c7.55,13.16,7.51,29.34-.09,42.47-7.6,13.13-21.62,21.21-36.79,21.21Z"/>
    <path class="cls-5" d="m976.57,651.94c-7.61,13.13-21.63,21.21-36.8,21.21h-295.63c-15.12,0-29.1-8.03-36.72-21.09-7.62-13.07-7.73-29.19-.29-42.36l29.35-51.92c7.55-13.34,21.69-21.59,37.02-21.59h236.5c15.24,0,29.31,8.15,36.89,21.37l29.77,51.92c7.55,13.16,7.51,29.34-.09,42.46Z"/>
    <path class="cls-6" d="m1005.96,705.2c-7.6,13.13-21.63,21.21-36.79,21.21h-354.01c-15.12,0-29.1-8.04-36.72-21.1-7.62-13.06-7.73-29.19-.29-42.35l29.36-51.92c7.54-13.34,21.68-21.59,37.01-21.59h294.88c15.23,0,29.3,8.15,36.88,21.37l29.77,51.91c7.55,13.16,7.51,29.34-.09,42.47Z"/>
    <path class="cls-8" d="m1432.48,1294.47c-.17-.48-.38-.94-.64-1.39l-137.48-239.75s-.01,0-.01-.02L796.45,185.03c-.31-.58-.69-1.12-1.12-1.6-.07-.08-.14-.15-.2-.22-.12-.13-.24-.25-.38-.37-.15-.15-.32-.29-.49-.43-.33-.26-.68-.5-1.05-.71-.16-.09-.32-.18-.49-.26-.16-.08-.33-.16-.5-.23-.36-.16-.73-.28-1.11-.38-.72-.19-1.44-.28-2.16-.28-.25,0-.5.01-.74.04-.14.01-.28.02-.41.04-.19.02-.37.06-.56.1-.36.07-.72.17-1.07.29-.37.13-.73.28-1.08.46-.15.08-.29.16-.43.24-.63.36-1.21.81-1.73,1.34-.26.26-.51.55-.74.85-.23.3-.45.62-.64.96l-336.86,595.79-289.75,512.47c-1.49,2.63-1.47,5.86.06,8.47,1.52,2.61,4.32,4.22,7.34,4.22h1262.12c.25,0,.51-.01.76-.04.03,0,.06,0,.1-.01.25-.02.5-.06.74-.11.02,0,.05,0,.08-.01.24-.05.47-.1.7-.17.04-.01.07-.02.11-.03.24-.08.48-.16.71-.26.02,0,.04-.01.06-.02.23-.09.45-.2.66-.31.04-.02.07-.03.11-.06.17-.09.33-.18.49-.29.07-.03.13-.07.2-.12.21-.14.41-.28.6-.45.03-.01.05-.03.08-.06.21-.17.41-.35.6-.54.53-.52.98-1.11,1.36-1.76.1-.17.2-.35.28-.53.08-.16.15-.32.22-.49.08-.2.16-.41.23-.61.05-.15.09-.3.13-.45.04-.15.07-.29.11-.44.31-1.52.21-3.11-.31-4.59Zm-1229.18-21.04l263.21-465.54L789.1,237.33l472.77,824.46,22.31,38.9,15.16,26.44,83.89,146.3H203.3Z"/>
    <g>
      <polygon class="cls-9" points="590.12 764.92 514.08 969.82 457.46 969.82 420.33 870.16 413.31 851.32 381.12 764.92 443.77 764.92 450.98 784.7 457.91 803.7 485.65 879.76 527.78 764.92 590.12 764.92"/>
      <rect class="cls-9" x="592.89" y="764.92" width="61.57" height="204.9"/>
      <polygon class="cls-9" points="841.33 764.92 841.33 969.82 779.76 969.82 779.76 895.51 734.62 895.51 734.62 969.82 673.05 969.82 673.05 764.92 734.62 764.92 734.62 839.24 779.76 839.24 779.76 764.92 841.33 764.92"/>
      <polygon class="cls-9" points="1050.69 764.92 974.63 969.82 918.02 969.82 841.69 764.92 904.33 764.92 946.22 879.76 988.34 764.92 1050.69 764.92"/>
      <polygon class="cls-9" points="1112.9 820.92 1112.9 839.24 1165.45 839.24 1165.45 895.24 1112.9 895.24 1112.9 913.83 1168.64 913.83 1168.64 969.82 1051.33 969.82 1051.33 764.92 1168.64 764.92 1168.64 820.92 1112.9 820.92"/>
    </g>
    <g>
      <path class="cls-9" d="m364.45,1216.55v-239.75h-89.74v305.13h171.37v-65.38h-81.63Zm-74.35-116.05v-.97l.41.24-.41.73Z"/>
      <rect class="cls-9" x="476.86" y="976.79" width="89.75" height="305.13"/>
      <path class="cls-9" d="m820.96,1145.79c-6.89-9.01-15.94-16.26-26.65-21.42,10.46-9.96,19.3-27.4,19.3-57.84,0-26.44-9.3-48.96-26.9-65.12-17.55-16.11-42.09-24.61-70.97-24.61h-109.83v305.13h189.77c26.7-16.09,41.87-44.15,41.87-80.78,0-22.33-5.59-40.96-16.59-55.36Zm-125.3-97.21h6.4c10.75,0,22.22,6.18,22.22,23.51,0,14.75-7.47,22.22-22.22,22.22h-6.4v-45.74Zm24.35,176.51h-24.35v-58.55h24.35c17.41,0,28.21,11.3,28.21,29.49s-10.28,29.06-28.21,29.06Z"/>
      <path class="cls-9" d="m1032.47,1174.54c36.57-16.26,58.08-50.7,58.08-93.9,0-61.15-43.41-103.84-105.55-103.84h-121.8v305.13h89.75v-78.59l49.71,78.59h99.34l-69.54-107.39Zm-54.31-71.25h-25.22v-45.73h25.22c14.24,0,23.08,8.84,23.08,23.08,0,15.24-7.55,22.65-23.08,22.65Z"/>
      <polygon class="cls-9" points="1220.91 1057.56 1220.91 1096.46 1305.52 1096.46 1305.52 1177.22 1220.91 1177.22 1220.91 1216.55 1310.66 1216.55 1310.66 1281.93 1131.16 1281.93 1131.16 976.79 1310.66 976.79 1310.66 1057.56 1220.91 1057.56"/>
    </g>
  </g>
</svg>